<svg width="279" height="218" viewBox="0 0 279 218" fill="none" xmlns="http://www.w3.org/2000/svg">
<g clip-path="url(#clip0_138_11352)">
<path d="M267.671 19.4132H143.961C138.202 19.4132 133.534 24.0819 133.534 29.841V207.293C133.534 213.052 138.202 217.721 143.961 217.721H267.671C273.43 217.721 278.099 213.052 278.099 207.293V29.841C278.099 24.0819 273.43 19.4132 267.671 19.4132Z" fill="#536FFF"/>
<path d="M265.586 27.4052H146.598V200.249H265.586V27.4052Z" fill="#F6F5F5"/>
<path d="M265.586 27.4066C265.622 94.8056 267.799 176.094 260.227 194.094C226.882 197.344 187.835 198.386 146.597 198.584L162.272 27.9272L265.586 27.4066Z" fill="#E4E4E4"/>
<path d="M254.899 188.644C202.922 196.963 168.187 197.403 140.009 195.311C143.657 156.445 145.125 91.8774 146.604 27.4136L209.236 27.5539L265.921 31.296C266.739 98.2011 266.83 160.003 254.899 188.644Z" fill="white"/>
<path d="M236.531 44.8287L173.937 43.3536L173.712 52.8877L236.306 54.3629L236.531 44.8287Z" fill="#536FFF"/>
<path d="M248.597 68.1608L192.137 66.8302L192.034 71.194L248.494 72.5246L248.597 68.1608Z" fill="#536FFF"/>
<path d="M230.289 77.2495L191.912 76.3452L191.809 80.709L230.186 81.6134L230.289 77.2495Z" fill="#D3DFFF"/>
<path d="M174.347 66.6672L160.981 66.3522L160.666 79.7186L174.032 80.0336L174.347 66.6672Z" fill="white" stroke="#536FFF" stroke-miterlimit="10"/>
<path d="M163.16 69.8614C163.573 71.4413 164.334 78.0597 167.65 76.209C168.415 75.7881 169.061 74.6544 169.634 74.0048L172.721 70.5054L178.886 63.504C179.413 62.9063 177.087 61.4064 176.426 62.157L170.946 68.3797L168.206 71.4918C167.571 72.2116 166.101 74.5323 165.165 74.7386L166.699 75.2339C167.061 75.5299 166.389 73.4281 166.373 73.3706C166.12 72.3949 165.865 71.4188 165.608 70.4423C165.398 69.6369 162.854 68.6674 163.166 69.8614H163.16Z" fill="#EE6F57"/>
<path d="M238.06 92.2256L191.566 91.1299L191.463 95.4937L237.957 96.5894L238.06 92.2256Z" fill="#536FFF"/>
<path d="M248.372 100.885L191.896 99.7556L191.808 104.121L248.284 105.25L248.372 100.885Z" fill="#D3DFFF"/>
<path d="M173.773 90.9682L160.407 90.6532L160.092 104.02L173.458 104.335L173.773 90.9682Z" fill="white" stroke="#536FFF" stroke-miterlimit="10"/>
<path d="M162.581 94.539C162.993 96.1189 163.755 102.737 167.07 100.887C167.835 100.466 168.482 99.332 169.054 98.6823L172.141 95.1816L178.306 88.1816C178.834 87.5839 176.508 86.0769 175.847 86.8346L170.366 93.0573L167.626 96.168C166.992 96.8878 165.521 99.2099 164.586 99.4161L166.119 99.9114C166.481 100.207 165.809 98.1057 165.795 98.0481C165.54 97.0725 165.285 96.0964 165.03 95.1199C164.819 94.3145 162.275 93.345 162.586 94.539H162.581Z" fill="#EE6F57"/>
<path d="M247.452 116.761L190.992 115.431L190.889 119.795L247.35 121.125L247.452 116.761Z" fill="#536FFF"/>
<path d="M216.017 125.541L190.767 124.946L190.664 129.31L215.914 129.905L216.017 125.541Z" fill="#D3DFFF"/>
<path d="M173.202 115.268L159.836 114.953L159.521 128.319L172.887 128.634L173.202 115.268Z" fill="white" stroke="#536FFF" stroke-miterlimit="10"/>
<path d="M162.191 119.012C162.603 120.592 163.365 127.21 166.68 125.359C167.445 124.938 168.092 123.805 168.663 123.155L171.75 119.656L177.915 112.654C178.443 112.057 176.116 110.557 175.455 111.307L169.974 117.53L167.229 120.642C166.595 121.362 165.124 123.683 164.189 123.889L165.724 124.384C166.084 124.68 165.413 122.578 165.398 122.521C165.145 121.546 164.89 120.57 164.633 119.593C164.423 118.787 161.878 117.818 162.191 119.012Z" fill="#EE6F57"/>
<path d="M247.588 139.985L191.112 138.855L191.025 143.22L247.501 144.35L247.588 139.985Z" fill="#536FFF"/>
<path d="M234.796 150.296L190.195 149.245L190.092 153.609L234.694 154.66L234.796 150.296Z" fill="#D3DFFF"/>
<path d="M172.629 139.567L159.262 139.252L158.947 152.619L172.314 152.934L172.629 139.567Z" fill="white" stroke="#536FFF" stroke-miterlimit="10"/>
<path d="M161.617 143.153C162.029 144.733 162.791 151.35 166.107 149.5C166.871 149.079 167.518 147.945 168.089 147.297L171.176 143.789L177.341 136.789C177.869 136.191 175.542 134.684 174.881 135.442L169.4 141.665L166.668 144.782C166.034 145.502 164.563 147.824 163.627 148.029L165.162 148.524C165.524 148.822 164.852 146.72 164.837 146.663C164.582 145.686 164.327 144.71 164.072 143.734C163.862 142.928 161.316 141.958 161.629 143.153H161.617Z" fill="#EE6F57"/>
<path d="M212.23 164.374L189.85 163.847L189.747 168.21L212.127 168.738L212.23 164.374Z" fill="#536FFF"/>
<path d="M246.093 174.691L189.632 173.362L189.53 177.726C211.373 178.238 239.187 179.261 244.862 178.391C245.724 177.404 246.188 176.202 246.093 174.691Z" fill="#D3DFFF"/>
<path d="M172.247 163.689L158.881 163.374L158.566 176.741L171.932 177.056L172.247 163.689Z" fill="white" stroke="#536FFF" stroke-miterlimit="10"/>
<path d="M161.055 167.083C161.476 168.663 162.231 175.28 165.545 173.429C166.309 173.008 166.957 171.875 167.528 171.227L170.615 167.719L176.788 160.719C177.314 160.12 174.99 158.614 174.327 159.37L168.847 165.593L166.107 168.705C165.472 169.425 164.002 171.746 163.066 171.952L164.601 172.447C164.962 172.745 164.291 170.641 164.276 170.585C164.02 169.609 163.765 168.633 163.511 167.657C163.3 166.85 160.755 165.881 161.067 167.076L161.055 167.083Z" fill="#EE6F57"/>
<path d="M232.613 20.6142V33.9605H179.015V20.6142C179.014 19.6012 179.212 18.5979 179.6 17.6618C179.987 16.7257 180.555 15.8752 181.271 15.159C181.443 14.986 181.625 14.823 181.816 14.6707C183.195 13.524 184.933 12.8982 186.726 12.9028C188.091 12.9034 189.437 12.5965 190.666 12.0049C191.186 11.7534 191.682 11.4547 192.148 11.1125C193.713 9.95431 194.865 8.32299 195.431 6.45984C196 4.59267 197.153 2.95757 198.721 1.79555C200.29 0.633522 202.19 0.00604958 204.142 0.00561523H207.487C209.438 0.00604958 211.338 0.633522 212.907 1.79555C214.475 2.95757 215.628 4.59267 216.197 6.45984C216.763 8.32786 217.916 9.96349 219.486 11.1237C219.951 11.4659 220.447 11.7646 220.968 12.0161C222.197 12.6077 223.543 12.9146 224.907 12.9141C226.949 12.917 228.907 13.7291 230.351 15.1723C231.795 16.6156 232.609 18.5724 232.613 20.6142Z" fill="#EE6F57"/>
<path d="M236.964 27.4052V37.3223H174.667V27.4052H179.016V33.9549H232.615V27.4052H236.964Z" fill="#E4E4E4"/>
<path d="M205.815 12.5142C208.441 12.5142 210.569 10.4914 210.569 7.99623C210.569 5.50103 208.441 3.47827 205.815 3.47827C203.19 3.47827 201.062 5.50103 201.062 7.99623C201.062 10.4914 203.19 12.5142 205.815 12.5142Z" fill="white"/>
<path d="M103.097 70.4535C101.195 70.0943 99.419 66.9177 98.8016 65.6998C98.6494 65.4019 98.6001 65.062 98.6613 64.7331L99.419 60.7231C99.419 60.7231 101.164 61.0191 101.03 63.344C101.02 63.5861 101.061 63.8275 101.15 64.0526L101.82 65.8009L103.795 64.2715L102.712 61.2113C102.712 61.2113 101.261 61.6098 100.512 61.3713C98.9686 60.8802 100.99 59.6876 101.634 59.5473C102.279 59.407 103.675 58.9103 104.312 59.9935C104.949 61.0766 105.332 61.7151 105.332 61.7151C105.332 61.7151 106.033 59.2919 105.555 53.8746C105.534 53.6304 106.144 53.636 106.315 53.8114C106.829 54.3334 107.647 55.9231 107.69 60.7581C107.69 60.7581 107.776 55.1233 108.741 54.5438C109.538 54.0654 109.941 56.8239 109.38 61.5004C109.38 61.5004 110.419 57.4511 111.164 57.444C112.42 57.4314 111.18 68.2591 108.023 71.4862L103.097 70.4535Z" fill="#F9B384"/>
<path d="M109.057 68.7964C109.001 69.3352 108.939 69.8572 108.872 70.3623C108.68 71.9661 108.402 73.5585 108.041 75.1328C108.024 75.2002 108.013 75.2619 107.996 75.3236C107.036 79.2523 106.862 81.183 103.585 80.6666L100.217 76.8278L100.184 76.7885L99.9368 76.5078L100.621 74.4874L100.711 74.2236L101.216 72.7532L101.278 72.5623L102.142 70.0368L102.49 69.0097L109.057 68.7964Z" fill="#F9B384"/>
<path d="M46.3934 208.581L45.5347 211.265C39.6417 213.199 36.2139 215.414 35.9937 218H53.0174L54.3826 209.02C50.9352 209.857 48.1711 209.271 46.3934 208.581Z" fill="#536FFF"/>
<path d="M48.5274 201.911L46.3933 208.581C48.171 209.271 50.9351 209.856 54.3825 209.015L55.2623 203.22L48.5274 201.911Z" fill="#F9B384"/>
<path d="M77.6332 208.284L78.1327 201.49L70.1351 201.911L69.6987 208.174C73.0816 209.253 75.8878 208.831 77.6332 208.284Z" fill="#F9B384"/>
<path d="M87.2527 218C87.0324 215.414 84.0255 211.873 77.431 211.031L77.633 208.284C75.8834 208.831 73.0842 209.253 69.6986 208.174L69.0125 217.996L87.2527 218Z" fill="#536FFF"/>
<path d="M71.1523 72.1975L61.5046 72.2649V57.6727H70.8605L70.8661 58.5651L70.911 63.1897L70.9783 70.6149L71.1523 72.1975Z" fill="#F9B384"/>
<path d="M70.9094 63.8913C69.1752 65.7153 64.6516 63.6555 62.7434 61.6463L70.8645 59.261L70.9094 63.8913Z" fill="#E28B6D"/>
<path d="M73.1488 54.3054C73.1512 55.4047 73.0668 56.5025 72.8962 57.5886C72.4248 60.5351 71.1788 63.0719 68.3053 63.1504C61.5143 63.3469 59.5781 59.4631 58.2984 56.2865C57.0188 53.1099 59.0954 45.4546 59.0954 45.4546L67.8844 44.5847L72.711 48.5414C73.0112 50.4479 73.1575 52.3754 73.1488 54.3054Z" fill="#F9B384"/>
<path d="M58.5721 54.4667C58.5721 54.4667 60.5097 54.3783 60.8409 49.3777C64.3051 50.5366 66.8377 49.4801 68.8385 47.172C70.5503 49.4324 75.3418 50.1409 76.9596 45.5121C78.1326 42.1686 74.9055 37.1876 70.2051 40.2042C65.5987 37.8765 58.6113 38.0364 56.5951 43.7456C56.5951 43.7456 49.6063 46.9728 57.0076 54.064C57.1605 54.2057 58.5721 54.4667 58.5721 54.4667Z" fill="black"/>
<path d="M85.2898 124.642L79.9581 205.278H67.4229L70.5574 127.032L72.474 126.144L85.2898 124.642Z" fill="black"/>
<path d="M52.644 113.61L43.8508 205.278H57.5085L70.5096 129.136L85.2898 124.647L85.9436 108.371L53.0186 107.623L52.644 113.61Z" fill="black"/>
<path opacity="0.6" d="M54.6042 113.809C62.0631 116.488 79.5639 113.427 83.1979 109.697L80.6162 104.536L51.8303 108.361L54.6042 113.809Z" fill="#102048"/>
<path d="M82.5272 108.454C82.2858 108.555 82.0389 108.661 81.7863 108.757C78.7664 109.983 75.6352 110.915 72.4361 111.54C70.3682 111.95 68.2728 112.207 66.1671 112.309C62.8647 112.494 59.5526 112.226 56.323 111.512L60.5042 72.5287L61.0149 67.775C61.0149 67.775 66.487 74.5099 72.5203 67.0735L82.5272 108.454Z" fill="white"/>
<path opacity="0.3" d="M66.1671 112.309C62.8647 112.494 59.5526 112.226 56.323 111.512L60.5042 72.5287L61.9971 70.3707C65.6844 79.3393 69.4616 99.2043 66.1671 112.309Z" fill="#1F3C88"/>
<path d="M61.5059 66.2316C65.6633 83.8825 67.3737 102.046 61.2492 122.215C56.7073 123.942 51.7615 123.923 46.4704 122.402L47.7795 85.7346L16.9577 106.921L15.0874 95.3697C26.9351 84.0411 47.4203 66.9332 61.5059 66.2316Z" fill="#536FFF"/>
<path opacity="0.3" d="M81.7806 108.757C78.7607 109.983 75.6294 110.915 72.4304 111.54C70.5783 100.888 70.1686 83.3887 71.6783 75.4921L81.7806 108.757Z" fill="#1F3C88"/>
<path opacity="0.6" d="M108.041 75.1441C108.024 75.2114 108.013 75.2732 107.996 75.3349C107.036 79.2636 106.862 81.1942 103.585 80.6779L100.217 76.839L100.184 76.7997L100.621 74.4986L100.711 74.2349L101.216 72.7644L101.278 72.5736L108.041 75.1441Z" fill="#E28B6D"/>
<path d="M107.457 78.7192C107.457 78.7192 99.179 96.2578 94.2682 96.6788C89.5075 97.0871 87.2527 92.4695 87.2527 92.4695L90.6201 118.101C86.6634 119.953 82.3419 120.857 77.3356 119.97C72.885 105.518 71.2027 86.8319 70.8716 66.0212C74.4747 66.2457 81.6109 66.553 84.1659 68.196C88.7498 71.1425 94.4085 81.6657 94.4085 81.6657L101.003 72.6859L107.457 78.7192Z" fill="#536FFF"/>
<path d="M6.53833 54.0065C6.53833 54.0065 7.03924 45.6174 7.89372 46.0088C8.74821 46.4003 10.46 53.7006 10.46 53.7006L8.62894 56.6555L6.53833 54.0065Z" fill="#6F3428"/>
<path d="M31.7324 205.512L31.9807 208.274C32.1907 210.615 31.4623 212.943 29.9557 214.747C28.449 216.551 26.2876 217.683 23.9466 217.893L23.2367 217.956C22.0777 218.061 20.9095 217.935 19.7989 217.588C18.6883 217.241 17.657 216.678 16.7638 215.932C15.8707 215.186 15.1332 214.272 14.5935 213.241C14.0538 212.21 13.7225 211.083 13.6185 209.924L13.3701 207.162L31.7324 205.512Z" fill="#EE6F57"/>
<path d="M19.7134 71.8103L1.35059 73.4589L13.3545 207.169L31.7173 205.521L19.7134 71.8103Z" fill="#FBC343"/>
<path opacity="0.3" d="M13.5508 69.6594L7.02881 70.2449L17.5507 187.447L24.0727 186.861L13.5508 69.6594Z" stroke="#6F3428" stroke-width="8" stroke-miterlimit="10"/>
<path d="M31.7309 205.514L13.3728 207.164L12.8902 201.776L12.5534 198.033L11.5151 186.527L29.8788 184.877L30.9115 196.383L31.2482 200.126L31.7309 205.514Z" fill="#536FFF"/>
<path d="M30.9272 196.375L12.5688 198.026L12.9056 201.77L31.2639 200.119L30.9272 196.375Z" fill="#FBC343"/>
<path d="M1.354 73.4533L6.45565 53.0103C6.45565 53.0103 8.21512 53.7918 10.3506 52.4729L19.7191 71.8033L1.354 73.4533Z" fill="#EE6F57"/>
<path d="M59.588 53.6206C59.5066 53.319 58.1358 52.905 57.8342 52.8223C57.3669 52.6932 56.852 52.6286 56.403 52.8349C54.7459 53.5841 54.9676 55.9568 55.8263 57.2041C56.3097 57.919 57.0256 58.4445 57.8524 58.6914C58.1541 58.777 61.0037 58.8121 60.8789 58.3533L59.588 53.6206Z" fill="#F9B384"/>
<path d="M7.4167 101.309C7.32055 100.988 7.16082 100.69 6.94702 100.432C6.73323 100.175 6.46974 99.9627 6.17227 99.809C5.8748 99.6553 5.54942 99.563 5.21554 99.5377C4.88166 99.5124 4.54611 99.5546 4.22887 99.6617C2.13967 100.383 0.31985 101.606 0.0378285 103.689C-0.218938 105.584 0.729556 111.639 4.96409 112.417L4.61893 109.307C4.61893 109.307 7.21184 108.702 7.72958 107.578C8.09298 106.791 8.11824 103.506 7.4167 101.309Z" fill="#F9B384"/>
<path d="M85.9592 80.4843C86.1823 81.8088 86.3717 83.1375 86.5527 84.4676C86.7337 85.7978 86.8908 87.1335 87.062 88.4622L87.497 92.4639C87.6232 93.801 87.7481 95.1297 87.8295 96.4795L87.612 96.5048C87.3819 95.1803 87.1911 93.8515 87.0101 92.5214L86.5092 88.5268C86.3689 87.191 86.2061 85.8609 86.0883 84.5224C85.9704 83.1838 85.8357 81.8495 85.7473 80.5095L85.9592 80.4843Z" fill="#1F3C88"/>
<path d="M48.2159 80.2626C48.2159 81.7498 48.1766 83.2371 48.1331 84.723C48.0896 86.2089 48.0195 87.699 47.9661 89.1848L47.7234 93.6383C47.6238 95.1227 47.5214 96.6058 47.3768 98.0875L47.158 98.0762C47.158 96.5876 47.193 95.1017 47.2337 93.6158L47.4049 89.1596C47.4905 87.6751 47.5536 86.1892 47.6575 84.7062C47.7613 83.2231 47.8567 81.7386 47.9942 80.257L48.2159 80.2626Z" fill="#1F3C88"/>
<path d="M66.4 53.4817C66.5178 54.0106 66.3003 54.5101 65.9131 54.6042C65.5258 54.6982 65.1147 54.3319 64.9969 53.803C64.879 53.274 65.0965 52.7745 65.4837 52.6805C65.871 52.5865 66.2807 52.9527 66.4 53.4817Z" fill="#102048"/>
<path d="M71.9941 52.8278C71.9703 53.3694 71.6307 53.7946 71.2337 53.7777C70.8366 53.7609 70.5321 53.3091 70.5574 52.7661C70.5826 52.2231 70.9208 51.7994 71.3164 51.8162C71.7121 51.8331 72.0166 52.2848 71.9941 52.8278Z" fill="#102048"/>
<path d="M68.8721 53.2712C69.0644 53.7357 69.0335 54.2352 69.1527 54.6154C69.2009 54.792 69.2942 54.9531 69.4235 55.0826C69.5838 55.1975 69.7621 55.2847 69.9511 55.3408C70.2163 55.4404 70.4473 55.6143 70.6162 55.8417C70.712 55.9734 70.7691 56.1292 70.781 56.2916C70.7929 56.454 70.7592 56.6165 70.6835 56.7607C70.5467 56.9878 70.3588 57.18 70.1349 57.322C69.9427 57.4525 69.7575 57.59 69.5568 57.712L69.4165 57.5465C69.5639 57.3655 69.7252 57.1999 69.8796 57.0273C70.0281 56.8928 70.1512 56.7326 70.243 56.5545C70.3608 56.2949 70.1026 56.0101 69.7378 55.8642C69.5484 55.7772 69.2748 55.7014 69.0545 55.4755C68.8606 55.2712 68.7347 55.0119 68.6939 54.7333C68.6013 54.2141 68.708 53.7693 68.6575 53.3302L68.8721 53.2712Z" fill="#E28B6D"/>
<path d="M63.7214 52.0604C63.8119 51.714 64.0135 51.407 64.2953 51.1863C64.585 50.9537 64.9414 50.82 65.3125 50.8046C65.6717 50.7839 66.0293 50.8667 66.3428 51.043C66.6564 51.2193 66.9129 51.4818 67.0818 51.7994L66.9107 51.9397C66.4716 51.5681 65.9144 51.3652 65.3392 51.3673C65.058 51.3811 64.7837 51.4596 64.5377 51.5966C64.2917 51.7336 64.0805 51.9254 63.9207 52.1572L63.7214 52.0604Z" fill="#102048"/>
<path d="M69.5149 51.3729C69.6 51.1035 69.7515 50.8598 69.9555 50.6643C70.174 50.4536 70.4524 50.3159 70.7524 50.27C71.3543 50.1704 72.0026 50.4777 72.2397 51.0123L72.0643 51.1442C71.708 50.8886 71.2696 50.7742 70.8338 50.8229C70.6264 50.854 70.4275 50.9266 70.2487 51.0361C70.0539 51.1688 69.8717 51.3191 69.7043 51.4851L69.5149 51.3729Z" fill="#102048"/>
<path d="M66.4099 58.7068C67.3921 60.2404 68.6955 60.4074 69.7044 58.7938L66.4099 58.7068Z" fill="white"/>
<path opacity="0.4" d="M73.1755 53.9307C73.1686 55.1551 73.0748 56.3775 72.8949 57.5886C72.5534 57.4799 72.2555 57.2651 72.0446 56.9754C71.8336 56.6857 71.7206 56.3362 71.7219 55.9778C71.7233 55.1304 72.38 54.0598 73.1755 53.9307Z" fill="#FC8879"/>
<path opacity="0.4" d="M64.019 58.791C65.0186 58.791 65.829 57.9806 65.829 56.981C65.829 55.9814 65.0186 55.171 64.019 55.171C63.0193 55.171 62.209 55.9814 62.209 56.981C62.209 57.9806 63.0193 58.791 64.019 58.791Z" fill="#FC8879"/>
<path d="M58.4023 55.4278C58.0799 55.1839 57.742 54.9613 57.3907 54.7613C57.2545 54.6848 57.1007 54.6452 56.9445 54.6463C56.7728 54.6754 56.6117 54.7489 56.4773 54.8596L56.2935 54.7417C56.3314 54.6111 56.3993 54.4911 56.4919 54.3915C56.5845 54.2918 56.6991 54.2152 56.8266 54.1678C56.9611 54.1278 57.1024 54.1155 57.2418 54.1317C57.3812 54.1478 57.5158 54.1921 57.6376 54.2618C58.0596 54.4894 58.3913 54.8542 58.5777 55.2959L58.4023 55.4278Z" fill="#E28B6D"/>
<path opacity="0.6" d="M7.72959 107.577L5.12545 115.491L4.58667 109.307C6.20584 108.954 7.08978 108.306 7.72959 107.577Z" fill="#6F3428"/>
</g>
<defs>
<clipPath id="clip0_138_11352">
<rect width="278.099" height="218" fill="white"/>
</clipPath>
</defs>
</svg>
